<svg width="49.960968" height="47.698486" viewBox="0 0 49.961 47.6985" fill="none" xmlns="http://www.w3.org/2000/svg" xmlns:xlink="http://www.w3.org/1999/xlink">
	<desc>
			Created with Pixso.
	</desc>
	<defs/>
	<path d="M49.96 23.84C49.96 37.02 38.77 47.69 24.98 47.69C11.18 47.69 0 37.02 0 23.84C0 10.67 11.18 0 24.98 0C38.77 0 49.96 10.67 49.96 23.84ZM16.72 21.66C14.22 22.7 11.65 23.77 9.3 25.01C8.07 25.87 9.7 26.48 11.23 27.05C11.48 27.14 11.72 27.23 11.94 27.32C12.13 27.37 12.32 27.43 12.52 27.49C14.22 28.01 16.12 28.58 17.77 27.71C20.49 26.23 23.05 24.5 25.61 22.78C26.45 22.22 27.29 21.66 28.13 21.1C28.17 21.08 28.21 21.05 28.26 21.02C28.98 20.57 30.6 19.57 30 20.95C28.59 22.43 27.07 23.74 25.55 25.05C24.52 25.94 23.49 26.82 22.49 27.77C21.61 28.45 20.7 29.82 21.68 30.77C23.94 32.28 26.24 33.75 28.53 35.22C29.27 35.7 30.02 36.18 30.76 36.66C32.03 37.62 34 36.84 34.28 35.34C34.4 34.65 34.52 33.96 34.65 33.27C35.33 29.45 36.02 25.62 36.62 21.79C36.7 21.19 36.8 20.59 36.89 19.99C37.12 18.53 37.34 17.07 37.41 15.6C37.23 14.14 35.37 14.46 34.34 14.79C29.02 16.72 23.76 18.8 18.52 20.91C17.93 21.16 17.33 21.41 16.72 21.66Z" fill="#2C2C2C" fill-opacity="1.000000" fill-rule="evenodd"/>
</svg>
