<svg width="59.953156" height="60.000000" viewBox="0 0 59.9532 60" fill="none" xmlns="http://www.w3.org/2000/svg" xmlns:xlink="http://www.w3.org/1999/xlink">
	<desc>
			Created with Pixso.
	</desc>
	<defs/>
	<path d="M9.58 9.58C6.24 12.92 6.24 18.3 6.24 29.05L6.24 30.95C6.24 41.69 6.24 47.07 9.58 50.41C12.91 53.75 18.28 53.75 29.02 53.75L30.92 53.75C41.66 53.75 47.03 53.75 50.37 50.41C53.7 47.07 53.7 41.69 53.7 30.95L53.7 29.05C53.7 18.3 53.7 12.92 50.37 9.58C47.03 6.25 41.66 6.25 30.92 6.25L29.02 6.25C18.28 6.25 12.91 6.25 9.58 9.58ZM14.23 20.75C14.49 33.08 20.65 40.5 31.45 40.5L32.06 40.5L32.06 33.44C36.02 33.83 39.02 36.74 40.23 40.5L45.83 40.5C44.29 34.88 40.25 31.78 37.72 30.59C40.25 29.13 43.8 25.57 44.65 20.75L39.56 20.75C38.45 24.66 35.18 28.22 32.06 28.55L32.06 20.75L26.96 20.75L26.96 34.43C23.81 33.63 19.82 29.8 19.64 20.75L14.23 20.75Z" fill="#2C2C2C" fill-opacity="1.000000" fill-rule="evenodd"/>
</svg>
